<svg width="32" height="32" viewBox="0 0 32 32" fill="none" xmlns="http://www.w3.org/2000/svg">
  <rect width="32" height="32" rx="8" fill="#242edb"/>
  <g transform="translate(-1.5, -1) scale(0.88)">
    <path d="M4.62 22.569C4.925 22.569 5.173 20.076 5.173 17C5.173 13.924 4.925 11.431 4.62 11.431C4.315 11.431 4.067 13.924 4.067 17C4.067 20.076 4.315 22.569 4.62 22.569Z" fill="white"/>
    <path d="M6.09 23.188C6.43 23.188 6.706 20.418 6.706 17C6.706 13.583 6.43 10.812 6.09 10.812C5.75 10.812 5.474 13.583 5.474 17C5.474 20.418 5.75 23.188 6.09 23.188Z" fill="white"/>
    <path d="M7.728 23.882C8.103 23.882 8.407 20.801 8.407 17C8.407 13.199 8.103 10.118 7.728 10.118C7.353 10.118 7.049 13.199 7.049 17C7.049 20.801 7.353 23.882 7.728 23.882Z" fill="white"/>
    <path d="M9.541 24.643C9.959 24.643 10.297 21.221 10.297 17C10.297 12.779 9.959 9.357 9.541 9.357C9.123 9.357 8.785 12.779 8.785 17C8.785 21.221 9.123 24.643 9.541 24.643Z" fill="white"/>
    <path d="M11.557 25.493C12.021 25.493 12.397 21.691 12.397 17C12.397 12.309 12.021 8.507 11.557 8.507C11.093 8.507 10.717 12.309 10.717 17C10.717 21.691 11.093 25.493 11.557 25.493Z" fill="white"/>
    <path d="M13.804 26.438C14.318 26.438 14.735 22.213 14.735 17C14.735 11.787 14.318 7.562 13.804 7.562C13.29 7.562 12.873 11.787 12.873 17C12.873 22.213 13.29 26.438 13.804 26.438Z" fill="white"/>
    <path d="M16.296 27.486C16.868 27.486 17.332 22.791 17.332 17C17.332 11.209 16.868 6.514 16.296 6.514C15.724 6.514 15.26 11.209 15.26 17C15.26 22.791 15.724 27.486 16.296 27.486Z" fill="white"/>
    <path d="M19.061 28.648C19.699 28.648 20.216 23.433 20.216 17C20.216 10.567 19.699 5.352 19.061 5.352C18.423 5.352 17.906 10.567 17.906 17C17.906 23.433 18.423 28.648 19.061 28.648Z" fill="white"/>
    <path d="M22.134 29.947C22.842 29.947 23.415 24.151 23.415 17C23.415 9.849 22.842 4.053 22.134 4.053C21.427 4.053 20.853 9.849 20.853 17C20.853 24.151 21.427 29.947 22.134 29.947Z" fill="white"/>
    <path d="M25.55 31.382C26.335 31.382 26.971 24.943 26.971 17C26.971 9.057 26.335 2.618 25.55 2.618C24.765 2.618 24.129 9.057 24.129 17C24.129 24.943 24.765 31.382 25.55 31.382Z" fill="white"/>
    <path d="M29.344 32.98C30.218 32.98 30.926 25.826 30.926 17C30.926 8.174 30.218 1.02 29.344 1.02C28.47 1.02 27.762 8.174 27.762 17C27.762 25.826 28.47 32.98 29.344 32.98Z" fill="white"/>
  </g>
</svg>
